<?xml version="1.0" encoding="utf-8"?>
<!-- Generator: Adobe Illustrator 23.0.3, SVG Export Plug-In . SVG Version: 6.00 Build 0)  -->
<svg version="1.1" id="Layer_1" xmlns="http://www.w3.org/2000/svg" xmlns:xlink="http://www.w3.org/1999/xlink" x="0px" y="0px"
	 viewBox="0 0 165.3 29" style="enable-background:new 0 0 165.3 29;" xml:space="preserve">
<style type="text/css">
	.st0{fill:#E35205;}
</style>
<g>
	<path class="st0" d="M13.7,24.5H0V0.6h5.7v19h8V24.5z M23.8,24.9c-5,0-7.3-2.5-7.3-5.9s3.1-5.3,7.8-5.3h2.1v-0.5
		c0-1.7-1.6-2.6-3.4-2.6c-2,0-4.1,1-4.2,1.1l-1.9-3.2c0.2-0.1,2.7-1.7,6.9-1.7c5.6,0,8.1,3.1,8,7.3v9C31.1,23.5,28.2,24.9,23.8,24.9
		 M26.3,17h-1c-2.9,0-3.8,1-3.8,2.2s1,2.1,2.6,2.1c1.1,0,1.8-0.2,2.2-0.3C26.3,21,26.3,17,26.3,17z M77,10.5C77.3,9.7,78.5,7,82.1,7
		h0.4v4.8h-0.8c-3.1,0-4.3,1.7-4.3,4v8.9h-5.5V7.4h4.7L77,10.5"/>
	<path class="st0" d="M104.5,24.5H99V7.4h5.5V24.5z M104.5,4.2H99V0h5.5V4.2z M116.1,24.9c-5.2,0-8-3.5-8-9c0-5.7,3-9,8-9
		c3.1,0,4.8,1.3,5.3,1.6l-1.8,3.3c-0.3-0.2-1.3-0.8-2.7-0.8c-2.2,0-3.3,1.8-3.3,4.9c0,3.5,1.3,4.9,3.3,4.9c1.5,0,2.6-0.7,3.1-1.1
		l1.9,3.2C121,23.6,119.2,24.9,116.1,24.9 M162.5,8.7c-1.5,0-2.8-1.2-2.8-2.7s1.2-2.7,2.8-2.7c1.5,0,2.8,1.2,2.8,2.7
		S164.1,8.7,162.5,8.7 M162.5,3.6c-1.3,0-2.4,1.1-2.4,2.4s1.1,2.4,2.4,2.4c1.3,0,2.4-1,2.4-2.4C164.9,4.7,163.8,3.6,162.5,3.6
		 M163.1,7.5l-0.6-1.2H162v1.2h-0.5v-3h1.1c0.6,0,1,0.4,1,0.9c0,0.4-0.3,0.7-0.6,0.8l0.7,1.3H163.1L163.1,7.5z M162.6,4.9H162v1h0.6
		c0.3,0,0.5-0.2,0.5-0.5S162.9,4.9,162.6,4.9 M41.9,25c-4.7,0-7.2-1.6-7.6-1.9l2-3.5c0.4,0.2,2.5,1.4,5.4,1.4c1.5,0,2.4-0.4,2.4-1.2
		c0-0.9-1.5-1.3-2.4-1.7c-0.4-0.2-1.4-0.5-2.2-0.8c-1.4-0.5-4.2-1.8-4.2-5.3c0-2.5,2-5,6.9-5c3.9,0,6.4,1.2,6.9,1.4l-1.9,3.4
		c-0.4-0.2-2.4-1-4.5-1c-1.2,0-1.9,0.4-1.9,1.1c0,0.9,1.4,1.3,2.2,1.6c0.5,0.2,1.1,0.4,1.8,0.6c2.7,1,4.6,2.6,4.6,5.4
		C49.5,23,46.6,25,41.9,25 M134.4,24.5V13.4c0-1.2-0.7-2-1.8-2c-1.2,0-2.3,1-2.5,1.1v11.9h-5.5V0h5.5v8.7c0.1-0.1,2.2-1.7,4.7-1.7
		c3.5,0,5.1,2.4,5.1,5.2v12.3H134.4 M95.8,4.2h-5v3.3h5v4.1h-5v13L85.4,29V7.1c0-4.4,1.8-7.1,6.7-7.1h3.8L95.8,4.2 M57.9,17.7
		c0,1.5,1.1,3.5,3.8,3.5c1.9,0,3.6-1,3.8-1.2l1.8,3.1c-0.3,0.2-2.7,1.8-6.4,1.8c-5.8,0-8.5-3.7-8.5-9s2.8-9,7.9-9c5.3,0,8,3.7,8,9.4
		v1.3H57.9 M60.5,10.5c-1.8,0-2.7,1.8-2.7,3.9h5.3C63.2,12.4,62.4,10.5,60.5,10.5 M149,17.7c0,1.5,1.1,3.5,3.8,3.5
		c1.9,0,3.6-1,3.8-1.2l1.8,3.1c-0.3,0.2-2.7,1.8-6.4,1.8c-5.8,0-8.6-3.7-8.6-9s2.8-9,7.9-9c5.4,0,8,3.7,8,9.4v1.3H149 M151.6,10.5
		c-1.8,0-2.7,1.8-2.6,3.9h5.3C154.3,12.4,153.5,10.5,151.6,10.5"/>
</g>
</svg>
